<?xml version="1.0" encoding="UTF-8" standalone="no"?>
<!-- Created with Inkscape (http://www.inkscape.org/) -->

<svg
   width="501.54349mm"
   height="147.38893mm"
   viewBox="0 0 501.54349 147.38893"
   version="1.1"
   id="svg1"
   xml:space="preserve"
   xmlns:inkscape="http://www.inkscape.org/namespaces/inkscape"
   xmlns:sodipodi="http://sodipodi.sourceforge.net/DTD/sodipodi-0.dtd"
   xmlns="http://www.w3.org/2000/svg"
   xmlns:svg="http://www.w3.org/2000/svg"><sodipodi:namedview
     id="namedview1"
     pagecolor="#ffffff"
     bordercolor="#000000"
     borderopacity="0.25"
     inkscape:showpageshadow="2"
     inkscape:pageopacity="0.0"
     inkscape:pagecheckerboard="0"
     inkscape:deskcolor="#d1d1d1"
     inkscape:document-units="mm" /><defs
     id="defs1" /><g
     inkscape:label="Camada 1"
     inkscape:groupmode="layer"
     id="layer1"
     transform="translate(135.22917,-96.484296)"><g
       id="g11"><rect
         style="opacity:0.99;fill:#fcfc30;stroke:none;stroke-width:5.91923"
         id="rect1"
         width="501.54352"
         height="147.38893"
         x="-135.22917"
         y="96.484299" /><text
         xml:space="preserve"
         style="font-style:normal;font-variant:normal;font-weight:bold;font-stretch:normal;font-size:28.4824px;font-family:'BancoDoBrasil Titulos';-inkscape-font-specification:'BancoDoBrasil Titulos, Bold';font-variant-ligatures:normal;font-variant-caps:normal;font-variant-numeric:normal;font-variant-east-asian:normal;text-align:center;text-anchor:middle;opacity:0.99;fill:#f97a70;stroke:none;stroke-width:1.71056"
         x="-74.022179"
         y="167.39105"
         id="text3"><tspan
           sodipodi:role="line"
           id="tspan3"
           style="fill:#f97a70;stroke-width:1.71055"
           x="-74.022179"
           y="167.39105">tudo</tspan></text><g
         id="g9"
         transform="translate(2.0023842)"><text
           xml:space="preserve"
           style="font-style:normal;font-variant:normal;font-weight:bold;font-stretch:normal;font-size:12.7977px;font-family:'BancoDoBrasil Titulos';-inkscape-font-specification:'BancoDoBrasil Titulos, Bold';font-variant-ligatures:normal;font-variant-caps:normal;font-variant-numeric:normal;font-variant-east-asian:normal;text-align:center;text-anchor:middle;opacity:0.99;fill:none;stroke:#465eff;stroke-width:0.322937;stroke-dasharray:none;stroke-opacity:1"
           x="-112.9874"
           y="141.25783"
           id="text1"><tspan
             sodipodi:role="line"
             id="tspan1"
             style="font-style:normal;font-variant:normal;font-weight:bold;font-stretch:normal;font-size:12.7977px;font-family:'BancoDoBrasil Titulos';-inkscape-font-specification:'BancoDoBrasil Titulos, Bold';font-variant-ligatures:normal;font-variant-caps:normal;font-variant-numeric:normal;font-variant-east-asian:normal;fill:none;stroke:#465eff;stroke-width:0.322937;stroke-dasharray:none;stroke-opacity:1"
             x="-112.9874"
             y="141.25783">Um</tspan></text><text
           xml:space="preserve"
           style="font-style:normal;font-variant:normal;font-weight:bold;font-stretch:normal;font-size:15.7912px;font-family:'BancoDoBrasil Titulos';-inkscape-font-specification:'BancoDoBrasil Titulos, Bold';font-variant-ligatures:normal;font-variant-caps:normal;font-variant-numeric:normal;font-variant-east-asian:normal;text-align:center;text-anchor:middle;opacity:0.99;fill:#465eff;stroke:none;stroke-width:0.948366"
           x="-76.457352"
           y="142.72675"
           id="text4"><tspan
             sodipodi:role="line"
             id="tspan4"
             style="stroke-width:0.94836"
             x="-76.457352"
             y="142.72675">banco</tspan></text><text
           xml:space="preserve"
           style="font-style:normal;font-variant:normal;font-weight:bold;font-stretch:normal;font-size:13.3952px;font-family:'BancoDoBrasil Titulos';-inkscape-font-specification:'BancoDoBrasil Titulos, Bold';font-variant-ligatures:normal;font-variant-caps:normal;font-variant-numeric:normal;font-variant-east-asian:normal;text-align:center;text-anchor:middle;opacity:0.99;fill:#fcfc30;stroke:#465eff;stroke-width:0.293674;stroke-dasharray:none"
           x="-39.561058"
           y="139.19897"
           id="text2"><tspan
             sodipodi:role="line"
             id="tspan2"
             style="fill:#fcfc30;stroke:#465eff;stroke-width:0.293674;stroke-dasharray:none"
             x="-39.561058"
             y="139.19897">pra</tspan></text></g><text
         xml:space="preserve"
         style="font-style:normal;font-variant:normal;font-weight:bold;font-stretch:normal;font-size:34.5183px;font-family:'BancoDoBrasil Titulos';-inkscape-font-specification:'BancoDoBrasil Titulos, Bold';font-variant-ligatures:normal;font-variant-caps:normal;font-variant-numeric:normal;font-variant-east-asian:normal;text-align:center;text-anchor:middle;opacity:0.99;fill:#f97a70;stroke:none;stroke-width:2.07305"
         x="-73.971733"
         y="208.24017"
         id="text7"><tspan
           sodipodi:role="line"
           id="tspan7"
           style="fill:#f97a70;stroke-width:2.07305"
           x="-73.971733"
           y="208.24017">todos</tspan></text><path
         style="fill:none;fill-opacity:1;stroke:#465eff;stroke-width:0.346504;stroke-dasharray:none"
         d="m 206.82327,233.03663 0.005,-10.02541 7.55387,-5.02217 7.55387,-5.02218 7.38806,4.9138 7.38807,4.91378 0.008,0.16137 0.008,0.16156 -14.95572,9.97205 -14.95574,9.97204 z m 36.21942,-14.07702 -36.06034,-24.05247 0.18788,-0.16988 0.18883,-0.16988 42.66025,-28.44757 42.66018,-28.44765 7.45747,4.95515 7.45746,4.95515 -5.8e-4,0.10862 -5.8e-4,0.10863 -34.59232,23.04773 -34.59242,23.04783 21.09018,14.05984 21.0901,14.05993 0.26718,-0.152 0.26718,-0.15201 9.54881,-6.38096 9.54871,-6.38089 -7.30745,-4.86198 -7.30744,-4.86186 -0.18788,-0.17284 -0.18788,-0.17281 18.04358,-12.0295 18.04359,-12.02959 14.92813,9.95365 14.92806,9.95364 -0.007,0.16138 -0.007,0.16136 -35.45515,23.62574 -35.45527,23.62563 -0.57307,0.35499 -0.5731,0.35499 z m 14.95432,-20.0965 -7.45096,-4.96817 34.59252,-23.04793 34.59252,-23.04782 1.9e-4,-0.10863 1.8e-4,-0.10861 -20.98567,-13.97562 -20.98558,-13.97562 -0.11136,-0.005 -0.11137,-0.005 -9.75979,6.50059 -9.75974,6.5005 7.39979,4.93259 7.39977,4.93269 0.0472,0.16242 0.0472,0.16328 -17.95956,11.95784 -17.95964,11.95792 -14.92504,-9.9542 -14.92513,-9.95422 -0.0472,-0.16137 -0.0472,-0.16137 35.94725,-23.95078 35.94735,-23.950795 0.16796,0.0049 0.16799,0.0049 35.94024,23.946485 35.94025,23.94635 0.007,0.16137 0.007,0.16138 -42.61448,28.41065 -42.61437,28.41066 -0.24738,0.0945 -0.2483,0.0944 -7.45095,-4.96818 z m 71.0983,-75.12528 -7.22956,-4.83346 -0.21997,-0.21903 -0.21904,-0.21999 14.67729,-9.78645 14.6773,-9.786519 0.30401,-0.116106 0.30401,-0.116106 v 9.952971 9.95307 l -6.99014,4.66362 -6.99021,4.6636 -0.54192,0.33989 -0.54193,0.33894 z"
         id="path2579-5" /><g
         id="g10"><text
           xml:space="preserve"
           style="font-style:normal;font-variant:normal;font-weight:bold;font-stretch:normal;font-size:15.1065px;font-family:'BancoDoBrasil Titulos';-inkscape-font-specification:'BancoDoBrasil Titulos, Bold';font-variant-ligatures:normal;font-variant-caps:normal;font-variant-numeric:normal;font-variant-east-asian:normal;text-align:center;text-anchor:middle;opacity:0.99;fill:none;stroke:#465eff;stroke-width:0.28646;stroke-dasharray:none"
           x="-87.026749"
           y="179.3678"
           id="text5"><tspan
             sodipodi:role="line"
             id="tspan5"
             style="fill:none;stroke:#465eff;stroke-width:0.28646;stroke-dasharray:none"
             x="-87.026749"
             y="179.3678">e</tspan></text><text
           xml:space="preserve"
           style="font-style:normal;font-variant:normal;font-weight:bold;font-stretch:normal;font-size:13.3952px;font-family:'BancoDoBrasil Titulos';-inkscape-font-specification:'BancoDoBrasil Titulos, Bold';font-variant-ligatures:normal;font-variant-caps:normal;font-variant-numeric:normal;font-variant-east-asian:normal;text-align:center;text-anchor:middle;opacity:0.99;fill:#fcfc30;stroke:#465eff;stroke-width:0.293674;stroke-dasharray:none"
           x="-67.862679"
           y="177.67268"
           id="text8"><tspan
             sodipodi:role="line"
             id="tspan8"
             style="fill:#fcfc30;stroke:#465eff;stroke-width:0.293674;stroke-dasharray:none"
             x="-67.862679"
             y="177.67268">pra</tspan></text></g></g></g></svg>
