<?xml version="1.0" encoding="UTF-8" standalone="no"?>
<svg
   width="26"
   height="32"
   viewBox="0 0 26 32"
   fill="none"
   version="1.1"
   id="svg1"
   sodipodi:docname="Compras.svg"
   inkscape:version="1.3 (0e150ed6c4, 2023-07-21)"
   xmlns:inkscape="http://www.inkscape.org/namespaces/inkscape"
   xmlns:sodipodi="http://sodipodi.sourceforge.net/DTD/sodipodi-0.dtd"
   xmlns="http://www.w3.org/2000/svg"
   xmlns:svg="http://www.w3.org/2000/svg">
  <defs
     id="defs1" />
  <sodipodi:namedview
     id="namedview1"
     pagecolor="#ffffff"
     bordercolor="#000000"
     borderopacity="0.25"
     inkscape:showpageshadow="2"
     inkscape:pageopacity="0.0"
     inkscape:pagecheckerboard="0"
     inkscape:deskcolor="#d1d1d1"
     inkscape:zoom="9.0769231"
     inkscape:cx="13"
     inkscape:cy="16.029661"
     inkscape:window-width="1920"
     inkscape:window-height="974"
     inkscape:window-x="-11"
     inkscape:window-y="-11"
     inkscape:window-maximized="1"
     inkscape:current-layer="svg1" />
  <path
     d="M22.5002 6.49935H19.3335C19.3335 3.00018 16.4993 0.166016 13.0002 0.166016C9.501 0.166016 6.66683 3.00018 6.66683 6.49935H3.50016C1.7585 6.49935 0.333496 7.92435 0.333496 9.66602V28.666C0.333496 30.4077 1.7585 31.8327 3.50016 31.8327H22.5002C24.2418 31.8327 25.6668 30.4077 25.6668 28.666V9.66602C25.6668 7.92435 24.2418 6.49935 22.5002 6.49935ZM13.0002 3.33268C14.7418 3.33268 16.1668 4.75768 16.1668 6.49935H9.8335C9.8335 4.75768 11.2585 3.33268 13.0002 3.33268ZM22.5002 28.666H3.50016V9.66602H6.66683V12.8327C6.66683 13.7035 7.37933 14.416 8.25016 14.416C9.121 14.416 9.8335 13.7035 9.8335 12.8327V9.66602H16.1668V12.8327C16.1668 13.7035 16.8793 14.416 17.7502 14.416C18.621 14.416 19.3335 13.7035 19.3335 12.8327V9.66602H22.5002V28.666Z"
     fill="#002F52"
     id="path1"
     style="fill:#465eff" />
</svg>
