<?xml version="1.0" encoding="UTF-8" standalone="no"?>
<!-- Created with Inkscape (http://www.inkscape.org/) -->

<svg
   width="15.39998mm"
   height="15.30145mm"
   viewBox="0 0 133.39998 133.30145"
   version="1.1"
   id="svg1937"
   sodipodi:docname="logoBBBranco.svg"
   inkscape:version="1.2.1 (9c6d41e410, 2022-07-14)"
   xmlns:inkscape="http://www.inkscape.org/namespaces/inkscape"
   xmlns:sodipodi="http://sodipodi.sourceforge.net/DTD/sodipodi-0.dtd"
   xmlns="http://www.w3.org/2000/svg"
   xmlns:svg="http://www.w3.org/2000/svg">
  <sodipodi:namedview
     id="namedview3768"
     pagecolor="#ffffff"
     bordercolor="#666666"
     borderopacity="1.0"
     inkscape:showpageshadow="2"
     inkscape:pageopacity="0.0"
     inkscape:pagecheckerboard="0"
     inkscape:deskcolor="#d1d1d1"
     inkscape:document-units="mm"
     showgrid="false"
     inkscape:zoom="14.196231"
     inkscape:cx="27.43686"
     inkscape:cy="28.880905"
     inkscape:window-width="3840"
     inkscape:window-height="1526"
     inkscape:window-x="-11"
     inkscape:window-y="-11"
     inkscape:window-maximized="1"
     inkscape:current-layer="svg1937" />
  <defs
     id="defs1934" />
  <path
     style="fill:#ffffff;stroke-width:0.2"
     d="m 0.00556986,124.05071 0.0056,-9.25072 6.97011704,-4.6341 6.9701171,-4.6341 6.817146,4.5341 6.817148,4.5341 0.0072,0.14927 0.0071,0.14927 -13.799999,9.20145 L -1.3709053e-7,133.30144 Z M 33.426166,111.06144 0.15235286,88.867621 l 0.173817,-0.15673 0.173817,-0.15673 39.36360714,-26.249348 39.363597,-26.249352 6.88122,4.572268 6.881215,4.572268 -6e-4,0.1 -6e-4,0.1 -31.91919,21.266746 -31.919203,21.266738 19.460382,12.973399 19.460381,12.9734 0.24654,-0.14015 0.24653,-0.14014 8.810855,-5.88787 8.81085,-5.88786 -6.74275,-4.486209 -6.74274,-4.48621 -0.17378,-0.1597 -0.173785,-0.15971 16.649216,-11.099979 16.649238,-11.099975 13.77455,9.184485 13.77455,9.184479 -0.006,0.14927 -0.006,0.14928 -32.71535,21.799999 -32.715354,21.79999 -0.52891,0.32764 -0.52899,0.32764 z m 13.798667,-18.543509 -6.875147,-4.58428 31.91933,-21.266824 31.919334,-21.26683 1.9e-4,-0.1 1.9e-4,-0.1 -19.363949,-12.895659 -19.363925,-12.89566 -0.10294,-0.0043 -0.10294,-0.0043 -9.0056,5.998197 -9.005587,5.998198 6.827982,4.551458 6.827985,4.551457 0.0436,0.150344 0.0436,0.150344 L 44.41523,51.83387 27.843423,62.867741 14.071705,53.682746 0.29998686,44.497749 0.25619686,44.348873 0.21240686,44.199997 33.381821,22.099998 66.551237,0 l 0.155,0.00410001 0.15501,0.0041 33.162953,22.09594299 33.16295,22.095945 0.006,0.14926 0.006,0.14926 -39.321374,26.215214 -39.321352,26.215209 -0.228636,0.0866 -0.228634,0.0866 -6.87515,-4.58428 z m 65.604187,-69.319925 -6.67097,-4.45994 -0.20259,-0.202587 -0.20258,-0.202587 13.5431,-9.0302263 13.54311,-9.03022669 0.28045,-0.107617 0.28044,-0.107618 V 9.2411067 18.425011 l -6.45,4.303249 -6.45,4.303252 -0.5,0.313216 -0.5,0.313218 z"
     id="path2579"
     inkscape:export-filename="logoBBBranco.png"
     inkscape:export-xdpi="96"
     inkscape:export-ydpi="96" />
</svg>
